<svg xmlns="http://www.w3.org/2000/svg"  viewBox="0 0 48 48" width="96px" height="96px"><defs><linearGradient id="pDI4sYAmnPXiTs6D5K2Eya" x1="8.81" x2="27.59" y1="-6.11" y2="38.75" gradientTransform="rotate(-22.3 24.013 24.577)" gradientUnits="userSpaceOnUse"><stop offset="0" stop-color="#f2fcff"/><stop offset=".55" stop-color="#c1f3f9"/><stop offset=".97" stop-color="#baccfd"/></linearGradient><linearGradient id="pDI4sYAmnPXiTs6D5K2Eyb" x1="8.82" x2="27.73" y1="-6.38" y2="38.79" gradientTransform="rotate(-22.3 24.013 24.577)" gradientUnits="userSpaceOnUse"><stop offset="0" stop-color="#effbff"/><stop offset=".55" stop-color="#b3f0f8"/><stop offset=".97" stop-color="#abc1fd"/></linearGradient><linearGradient id="pDI4sYAmnPXiTs6D5K2Eyc" x1="8.86" x2="27.86" y1="-6.59" y2="38.8" gradientTransform="rotate(-22.3 24.013 24.577)" gradientUnits="userSpaceOnUse"><stop offset="0" stop-color="#ecfbff"/><stop offset=".55" stop-color="#a5edf7"/><stop offset=".97" stop-color="#9bb5fc"/></linearGradient><linearGradient id="pDI4sYAmnPXiTs6D5K2Eyd" x1="8.92" x2="27.99" y1="-6.75" y2="38.79" gradientTransform="rotate(-22.3 24.013 24.577)" gradientUnits="userSpaceOnUse"><stop offset="0" stop-color="#eafaff"/><stop offset=".55" stop-color="#98ebf5"/><stop offset=".97" stop-color="#8caafc"/></linearGradient><linearGradient id="pDI4sYAmnPXiTs6D5K2Eye" x1="9.01" x2="28.11" y1="-6.85" y2="38.76" gradientTransform="rotate(-22.3 24.013 24.577)" gradientUnits="userSpaceOnUse"><stop offset="0" stop-color="#e7f9ff"/><stop offset=".55" stop-color="#8ae8f4"/><stop offset=".97" stop-color="#7c9ffc"/></linearGradient><linearGradient id="pDI4sYAmnPXiTs6D5K2Eyf" x1="9.12" x2="28.22" y1="-6.9" y2="38.72" gradientTransform="rotate(-22.3 24.013 24.577)" gradientUnits="userSpaceOnUse"><stop offset="0" stop-color="#e4f9fe"/><stop offset=".55" stop-color="#7ce5f3"/><stop offset=".97" stop-color="#6d93fb"/></linearGradient><linearGradient id="pDI4sYAmnPXiTs6D5K2Eyg" x1="9.25" x2="28.32" y1="-6.89" y2="38.65" gradientTransform="rotate(-22.3 24.013 24.577)" gradientUnits="userSpaceOnUse"><stop offset="0" stop-color="#e1f8fe"/><stop offset=".55" stop-color="#6ee2f2"/><stop offset=".97" stop-color="#5d88fb"/></linearGradient><linearGradient id="pDI4sYAmnPXiTs6D5K2Eyh" x1="9.41" x2="28.41" y1="-6.82" y2="38.57" gradientTransform="rotate(-22.3 24.013 24.577)" gradientUnits="userSpaceOnUse"><stop offset="0" stop-color="#dff7fe"/><stop offset=".55" stop-color="#61e0f0"/><stop offset=".97" stop-color="#4e7dfb"/></linearGradient><linearGradient id="pDI4sYAmnPXiTs6D5K2Eyi" x1="9.59" x2="28.49" y1="-6.7" y2="38.47" gradientTransform="rotate(-22.3 24.013 24.577)" gradientUnits="userSpaceOnUse"><stop offset="0" stop-color="#dcf7fe"/><stop offset=".55" stop-color="#53ddef"/><stop offset=".97" stop-color="#3e71fa"/></linearGradient><linearGradient id="pDI4sYAmnPXiTs6D5K2Eyj" x1="9.79" x2="28.57" y1="-6.53" y2="38.34" gradientTransform="rotate(-22.3 24.013 24.577)" gradientUnits="userSpaceOnUse"><stop offset="0" stop-color="#d9f6fe"/><stop offset=".55" stop-color="#45daee"/><stop offset=".97" stop-color="#2f66fa"/></linearGradient></defs><path fill="url(#pDI4sYAmnPXiTs6D5K2Eya)" d="m35.85,21.93L16.36,4.91c-1.08-.94-2.77-.25-2.87,1.18l-1.92,25.81c-.11,1.54,1.69,2.45,2.86,1.44l5.51-4.75s.12-.02.15.03l5.77,14.07c.28.68,1.06,1.01,1.74.73l4.93-2.02c.68-.28,1.01-1.06.73-1.74l-5.77-14.07c-.02-.06.02-.12.08-.13l7.26-.49c1.54-.1,2.19-2.02,1.02-3.04Z"/><path fill="url(#pDI4sYAmnPXiTs6D5K2Eyb)" d="m35.3,21.9L16.49,5.47c-1.01-.89-2.6-.23-2.7,1.11l-1.85,24.92c-.1,1.4,1.54,2.23,2.6,1.31l5.14-4.43c.25-.21.63-.12.75.18l5.66,13.79c.26.64.99.94,1.62.68l4.49-1.84c.64-.26.94-.99.68-1.62l-5.66-13.79c-.12-.3.08-.63.41-.65l6.77-.46c1.4-.09,1.99-1.84.93-2.76Z"/><path fill="url(#pDI4sYAmnPXiTs6D5K2Eyc)" d="m34.76,21.87L16.62,6.02c-.95-.83-2.44-.22-2.54,1.04l-1.78,24.02c-.09,1.26,1.38,2,2.34,1.18l4.76-4.1c.44-.38,1.13-.22,1.35.32l5.54,13.51c.24.59.91.87,1.5.63l4.04-1.66c.59-.24.87-.91.63-1.5l-5.54-13.51c-.22-.54.15-1.14.74-1.18l6.27-.42c1.26-.09,1.79-1.65.84-2.48Z"/><path fill="url(#pDI4sYAmnPXiTs6D5K2Eyd)" d="m34.21,21.84L16.74,6.58c-.89-.78-2.28-.2-2.37.97l-1.71,23.13c-.08,1.12,1.23,1.78,2.07,1.05l4.39-3.78c.64-.55,1.63-.32,1.95.47l5.43,13.23c.22.54.84.8,1.38.58l3.59-1.47c.54-.22.8-.84.58-1.38l-5.43-13.23c-.32-.78.22-1.65,1.06-1.7l5.78-.39c1.12-.08,1.59-1.46.74-2.2Z"/><path fill="url(#pDI4sYAmnPXiTs6D5K2Eye)" d="m33.66,21.81L16.87,7.13c-.82-.72-2.12-.19-2.2.9l-1.64,22.24c-.07.97,1.07,1.55,1.81.91l4.01-3.45c.84-.72,2.14-.41,2.56.61l5.31,12.95c.2.49.77.73,1.26.53l3.14-1.29c.49-.2.73-.77.53-1.26l-5.31-12.95c-.42-1.02.29-2.16,1.39-2.23l5.28-.36c.98-.07,1.38-1.28.65-1.92Z"/><path fill="url(#pDI4sYAmnPXiTs6D5K2Eyf)" d="m33.12,21.78L17,7.69c-.76-.67-1.95-.18-2.03.83l-1.57,21.35c-.06.83.91,1.32,1.55.78l3.63-3.13c1.03-.89,2.64-.51,3.16.76l5.2,12.67c.18.45.7.66,1.14.48l2.7-1.11c.45-.18.66-.7.48-1.14l-5.2-12.67c-.52-1.26.36-2.67,1.72-2.76l4.79-.32c.83-.06,1.18-1.09.55-1.64Z"/><path fill="url(#pDI4sYAmnPXiTs6D5K2Eyg)" d="m32.57,21.75l-15.44-13.51c-.7-.61-1.79-.16-1.86.76l-1.51,20.46c-.05.69.76,1.1,1.28.65l3.26-2.81c1.23-1.06,3.14-.61,3.76.9l5.08,12.39c.16.4.62.59,1.02.43l2.25-.92c.4-.16.59-.62.43-1.02l-5.08-12.39c-.62-1.51.42-3.17,2.05-3.28l4.29-.29c.69-.05.98-.91.46-1.36Z"/><path fill="url(#pDI4sYAmnPXiTs6D5K2Eyh)" d="m32.02,21.72l-14.76-12.92c-.63-.56-1.63-.15-1.69.69l-1.44,19.56c-.04.55.6.87,1.02.51l2.88-2.48c1.43-1.23,3.65-.7,4.37,1.04l4.97,12.11c.15.35.55.52.91.38l1.8-.74c.35-.15.52-.55.38-.91l-4.97-12.11c-.72-1.75.49-3.68,2.38-3.81l3.8-.25c.55-.04.78-.72.37-1.08Z"/><path fill="url(#pDI4sYAmnPXiTs6D5K2Eyi)" d="m31.48,21.69l-14.08-12.33c-.57-.5-1.47-.13-1.52.62l-1.37,18.67c-.03.41.45.65.76.38l2.5-2.16c1.63-1.4,4.15-.8,4.97,1.19l4.85,11.83c.13.31.48.45.79.33l1.35-.55c.31-.13.45-.48.33-.79l-4.85-11.83c-.82-1.99.56-4.19,2.7-4.33l3.3-.22c.41-.03.58-.53.27-.8Z"/><path fill="url(#pDI4sYAmnPXiTs6D5K2Eyj)" d="m30.93,21.66l-13.41-11.75c-.51-.45-1.31-.12-1.36.56l-1.3,17.78c-.02.27.29.42.49.25l2.13-1.84c1.82-1.58,4.66-.9,5.57,1.33l4.74,11.55c.11.26.41.39.67.28l.91-.37c.26-.11.39-.41.28-.67l-4.74-11.55c-.91-2.23.63-4.7,3.03-4.86l2.81-.19c.27-.02.38-.35.18-.52Z"/></svg>